<mxfile host="app.diagrams.net" agent="Mozilla/5.0 (X11; Linux x86_64; rv:133.0) Gecko/20100101 Firefox/133.0" version="25.0.3">
  <diagram name="Page-1" id="mlBt718oroM3iFTO48tE">
    <mxGraphModel dx="5557" dy="5315" grid="1" gridSize="10" guides="1" tooltips="1" connect="1" arrows="1" fold="1" page="1" pageScale="1" pageWidth="827" pageHeight="1169" math="0" shadow="0">
      <root>
        <mxCell id="0" />
        <mxCell id="1" parent="0" />
        <mxCell id="HiohPXEZzKrVTZNAdpPA-4" value="" style="html=1;overflow=block;blockSpacing=1;whiteSpace=wrap;container=1;pointerEvents=0;collapsible=0;recursiveResize=0;fontSize=40;spacing=0;strokeColor=#3a414a;strokeOpacity=100;fillOpacity=0;rounded=1;absoluteArcSize=1;arcSize=9;fillColor=#000000;strokeWidth=6;lucidId=vf_wCN5c-QK1;" parent="1" vertex="1">
          <mxGeometry x="390" y="-2250" width="1335" height="2265" as="geometry" />
        </mxCell>
        <mxCell id="HiohPXEZzKrVTZNAdpPA-26" value="Adjust campaign goals" style="html=1;overflow=block;blockSpacing=1;whiteSpace=wrap;ellipse;fontSize=26.7;spacing=3.8;strokeColor=#3a414a;strokeOpacity=100;fillOpacity=100;rounded=1;absoluteArcSize=1;arcSize=9;fillColor=#ffffff;strokeWidth=3;lucidId=4WexlhnXaa_o;" parent="HiohPXEZzKrVTZNAdpPA-4" vertex="1">
          <mxGeometry x="535" y="880" width="240" height="106" as="geometry" />
        </mxCell>
        <mxCell id="HiohPXEZzKrVTZNAdpPA-21" value="Apply for campaign creation" style="html=1;overflow=block;blockSpacing=1;whiteSpace=wrap;ellipse;fontSize=26.7;spacing=3.8;strokeColor=#3a414a;strokeOpacity=100;fillOpacity=100;rounded=1;absoluteArcSize=1;arcSize=9;fillColor=#ffffff;strokeWidth=3;lucidId=0UexXaVD-pW4;" parent="HiohPXEZzKrVTZNAdpPA-4" vertex="1">
          <mxGeometry x="197" y="690" width="281" height="112" as="geometry" />
        </mxCell>
        <mxCell id="HiohPXEZzKrVTZNAdpPA-35" value="" style="html=1;jettySize=18;whiteSpace=wrap;fontSize=13;strokeColor=#3a414a;strokeOpacity=100;dashed=1;fixDash=1;dashPattern=6 5;strokeWidth=4.5;rounded=0;startArrow=open;endArrow=none;exitX=0;exitY=0.5;lucidId=Eqfx6OLwEmcW;entryX=1;entryY=0.5;entryDx=0;entryDy=0;exitDx=0;exitDy=0;" parent="HiohPXEZzKrVTZNAdpPA-4" source="RDOZD4XtGrTmduCKfG26-4" target="HiohPXEZzKrVTZNAdpPA-21" edge="1">
          <mxGeometry width="100" height="100" relative="1" as="geometry">
            <Array as="points" />
            <mxPoint x="790" y="720" as="targetPoint" />
          </mxGeometry>
        </mxCell>
        <mxCell id="HiohPXEZzKrVTZNAdpPA-36" value="&amp;lt;&amp;lt;include&amp;gt;&amp;gt;" style="text;html=1;resizable=0;labelBackgroundColor=default;align=center;verticalAlign=middle;fontStyle=1;fontColor=#333333;fontSize=23.3;" parent="HiohPXEZzKrVTZNAdpPA-35" vertex="1">
          <mxGeometry relative="1" as="geometry" />
        </mxCell>
        <mxCell id="UO9TXqoZCPgcYhiLSK6q-12" value="Text" style="edgeLabel;html=1;align=center;verticalAlign=middle;resizable=0;points=[];" parent="HiohPXEZzKrVTZNAdpPA-35" vertex="1" connectable="0">
          <mxGeometry x="0.0997" y="8" relative="1" as="geometry">
            <mxPoint x="1" as="offset" />
          </mxGeometry>
        </mxCell>
        <mxCell id="HiohPXEZzKrVTZNAdpPA-51" value="Create recipient account" style="html=1;overflow=block;blockSpacing=1;whiteSpace=wrap;ellipse;fontSize=26.7;spacing=3.8;strokeColor=#3a414a;strokeOpacity=100;fillOpacity=100;rounded=1;absoluteArcSize=1;arcSize=9;fillColor=#ffffff;strokeWidth=3;lucidId=fWexwEg0DC2k;" parent="HiohPXEZzKrVTZNAdpPA-4" vertex="1">
          <mxGeometry x="197" y="464" width="270" height="106" as="geometry" />
        </mxCell>
        <mxCell id="HiohPXEZzKrVTZNAdpPA-46" value="Change campaign state" style="html=1;overflow=block;blockSpacing=1;whiteSpace=wrap;ellipse;fontSize=26.7;spacing=3.8;strokeColor=#3a414a;strokeOpacity=100;fillOpacity=100;rounded=1;absoluteArcSize=1;arcSize=9;fillColor=#ffffff;strokeWidth=3;lucidId=~WexgQ6B5ljM;" parent="HiohPXEZzKrVTZNAdpPA-4" vertex="1">
          <mxGeometry x="530" y="1034" width="270" height="106" as="geometry" />
        </mxCell>
        <mxCell id="HiohPXEZzKrVTZNAdpPA-33" value="Charge service fee" style="html=1;overflow=block;blockSpacing=1;whiteSpace=wrap;ellipse;fontSize=26.7;spacing=3.8;strokeColor=#3a414a;strokeOpacity=100;fillOpacity=100;rounded=1;absoluteArcSize=1;arcSize=9;fillColor=#ffffff;strokeWidth=3;lucidId=BXex4DfeuOG_;" parent="HiohPXEZzKrVTZNAdpPA-4" vertex="1">
          <mxGeometry x="890" y="1740" width="300" height="110" as="geometry" />
        </mxCell>
        <mxCell id="HiohPXEZzKrVTZNAdpPA-17" value="Donate to recipient" style="html=1;overflow=block;blockSpacing=1;whiteSpace=wrap;ellipse;fontSize=26.7;spacing=3.8;strokeColor=#3a414a;strokeOpacity=100;fillOpacity=100;rounded=1;absoluteArcSize=1;arcSize=9;fillColor=#ffffff;strokeWidth=3;lucidId=4Texdm8H9AnI;" parent="HiohPXEZzKrVTZNAdpPA-4" vertex="1">
          <mxGeometry x="209.5" y="2020" width="215" height="106" as="geometry" />
        </mxCell>
        <mxCell id="HiohPXEZzKrVTZNAdpPA-23" value="Receive donation from donors" style="html=1;overflow=block;blockSpacing=1;whiteSpace=wrap;ellipse;fontSize=26.7;spacing=3.8;strokeColor=#3a414a;strokeOpacity=100;fillOpacity=100;rounded=1;absoluteArcSize=1;arcSize=9;fillColor=#ffffff;strokeWidth=3;lucidId=tVexphC~EU-E;" parent="HiohPXEZzKrVTZNAdpPA-4" vertex="1">
          <mxGeometry x="205" y="1740" width="254" height="112" as="geometry" />
        </mxCell>
        <mxCell id="HiohPXEZzKrVTZNAdpPA-107" value="" style="html=1;jettySize=18;whiteSpace=wrap;fontSize=13;strokeColor=#3a414a;strokeOpacity=100;dashed=1;fixDash=1;dashPattern=6 5;strokeWidth=4.5;rounded=0;startArrow=open;endArrow=none;lucidId=Eqfx6OLwEmcW;entryX=1;entryY=0.5;entryDx=0;entryDy=0;exitX=0;exitY=0.5;exitDx=0;exitDy=0;" parent="HiohPXEZzKrVTZNAdpPA-4" source="HiohPXEZzKrVTZNAdpPA-33" target="HiohPXEZzKrVTZNAdpPA-23" edge="1">
          <mxGeometry width="100" height="100" relative="1" as="geometry">
            <Array as="points" />
            <mxPoint x="577.5" y="1540" as="sourcePoint" />
            <mxPoint x="827.5" y="1580" as="targetPoint" />
          </mxGeometry>
        </mxCell>
        <mxCell id="HiohPXEZzKrVTZNAdpPA-108" value="&amp;lt;&amp;lt;include&amp;gt;&amp;gt;" style="text;html=1;resizable=0;labelBackgroundColor=default;align=center;verticalAlign=middle;fontStyle=1;fontColor=#333333;fontSize=23.3;" parent="HiohPXEZzKrVTZNAdpPA-107" vertex="1">
          <mxGeometry relative="1" as="geometry" />
        </mxCell>
        <mxCell id="rKG8uQmGzCBM0LeLfwrZ-1" value="" style="html=1;jettySize=18;whiteSpace=wrap;fontSize=13;strokeColor=#3a414a;strokeOpacity=100;dashed=1;fixDash=1;dashPattern=6 5;strokeWidth=4.5;rounded=0;startArrow=open;endArrow=none;lucidId=Eqfx6OLwEmcW;entryX=0.5;entryY=1;entryDx=0;entryDy=0;exitX=0.5;exitY=0;exitDx=0;exitDy=0;" parent="HiohPXEZzKrVTZNAdpPA-4" source="HiohPXEZzKrVTZNAdpPA-17" target="HiohPXEZzKrVTZNAdpPA-23" edge="1">
          <mxGeometry width="100" height="100" relative="1" as="geometry">
            <Array as="points" />
            <mxPoint x="815" y="1792" as="sourcePoint" />
            <mxPoint x="365" y="1652" as="targetPoint" />
          </mxGeometry>
        </mxCell>
        <mxCell id="rKG8uQmGzCBM0LeLfwrZ-2" value="&amp;lt;&amp;lt;extend&amp;gt;&amp;gt;" style="text;html=1;resizable=0;labelBackgroundColor=default;align=center;verticalAlign=middle;fontStyle=1;fontColor=#333333;fontSize=23.3;" parent="rKG8uQmGzCBM0LeLfwrZ-1" vertex="1">
          <mxGeometry relative="1" as="geometry" />
        </mxCell>
        <mxCell id="RDOZD4XtGrTmduCKfG26-1" value="Manage recipient campaigns" style="html=1;overflow=block;blockSpacing=1;whiteSpace=wrap;ellipse;fontSize=26.7;spacing=3.8;strokeColor=#3a414a;strokeOpacity=100;fillOpacity=100;rounded=1;absoluteArcSize=1;arcSize=9;fillColor=#ffffff;strokeWidth=3;lucidId=BXex4DfeuOG_;" parent="HiohPXEZzKrVTZNAdpPA-4" vertex="1">
          <mxGeometry x="900" y="1372" width="300" height="110" as="geometry" />
        </mxCell>
        <mxCell id="RDOZD4XtGrTmduCKfG26-3" value="Post campaign updates" style="html=1;overflow=block;blockSpacing=1;whiteSpace=wrap;ellipse;fontSize=26.7;spacing=3.8;strokeColor=#3a414a;strokeOpacity=100;fillOpacity=100;rounded=1;absoluteArcSize=1;arcSize=9;fillColor=#ffffff;strokeWidth=3;lucidId=BXex4DfeuOG_;" parent="HiohPXEZzKrVTZNAdpPA-4" vertex="1">
          <mxGeometry x="550" y="1180" width="230" height="110" as="geometry" />
        </mxCell>
        <mxCell id="RDOZD4XtGrTmduCKfG26-4" value="Verify recipient campaign " style="html=1;overflow=block;blockSpacing=1;whiteSpace=wrap;ellipse;fontSize=26.7;spacing=3.8;strokeColor=#3a414a;strokeOpacity=100;fillOpacity=100;rounded=1;absoluteArcSize=1;arcSize=9;fillColor=#ffffff;strokeWidth=3;lucidId=BXex4DfeuOG_;" parent="HiohPXEZzKrVTZNAdpPA-4" vertex="1">
          <mxGeometry x="840" y="690" width="300" height="110" as="geometry" />
        </mxCell>
        <mxCell id="RDOZD4XtGrTmduCKfG26-5" value="Activate recipient campaign" style="html=1;overflow=block;blockSpacing=1;whiteSpace=wrap;ellipse;fontSize=26.7;spacing=3.8;strokeColor=#3a414a;strokeOpacity=100;fillOpacity=100;rounded=1;absoluteArcSize=1;arcSize=9;fillColor=#ffffff;strokeWidth=3;lucidId=BXex4DfeuOG_;" parent="HiohPXEZzKrVTZNAdpPA-4" vertex="1">
          <mxGeometry x="780" y="460" width="300" height="110" as="geometry" />
        </mxCell>
        <mxCell id="RDOZD4XtGrTmduCKfG26-11" value="" style="html=1;jettySize=18;whiteSpace=wrap;fontSize=13;strokeColor=#3a414a;strokeOpacity=100;dashed=1;fixDash=1;dashPattern=6 5;strokeWidth=4.5;rounded=0;startArrow=open;endArrow=none;lucidId=Eqfx6OLwEmcW;entryX=0.5;entryY=1;entryDx=0;entryDy=0;exitX=0.5;exitY=0;exitDx=0;exitDy=0;" parent="HiohPXEZzKrVTZNAdpPA-4" source="RDOZD4XtGrTmduCKfG26-4" target="RDOZD4XtGrTmduCKfG26-5" edge="1">
          <mxGeometry width="100" height="100" relative="1" as="geometry">
            <Array as="points" />
            <mxPoint x="933.33" y="806.11" as="sourcePoint" />
            <mxPoint x="799.3960171779519" y="690.000872965249" as="targetPoint" />
          </mxGeometry>
        </mxCell>
        <mxCell id="RDOZD4XtGrTmduCKfG26-12" value="&amp;lt;&amp;lt;extend&amp;gt;&amp;gt;" style="text;html=1;resizable=0;labelBackgroundColor=default;align=center;verticalAlign=middle;fontStyle=1;fontColor=#333333;fontSize=23.3;" parent="RDOZD4XtGrTmduCKfG26-11" vertex="1">
          <mxGeometry relative="1" as="geometry" />
        </mxCell>
        <mxCell id="HiohPXEZzKrVTZNAdpPA-13" value="Show campaign information" style="html=1;overflow=block;blockSpacing=1;whiteSpace=wrap;ellipse;fontSize=26.7;spacing=3.8;strokeColor=#3a414a;strokeOpacity=100;fillOpacity=100;rounded=1;absoluteArcSize=1;arcSize=9;fillColor=#ffffff;strokeWidth=3;lucidId=aTexgPc8F~-.;" parent="HiohPXEZzKrVTZNAdpPA-4" vertex="1">
          <mxGeometry x="500" y="325" width="240" height="106" as="geometry" />
        </mxCell>
        <mxCell id="UO9TXqoZCPgcYhiLSK6q-3" value="Request campaign adjustment" style="html=1;overflow=block;blockSpacing=1;whiteSpace=wrap;ellipse;fontSize=26.7;spacing=3.8;strokeColor=#3a414a;strokeOpacity=100;fillOpacity=100;rounded=1;absoluteArcSize=1;arcSize=9;fillColor=#ffffff;strokeWidth=3;lucidId=0UexXaVD-pW4;" parent="HiohPXEZzKrVTZNAdpPA-4" vertex="1">
          <mxGeometry x="170" y="1370" width="281" height="112" as="geometry" />
        </mxCell>
        <mxCell id="UO9TXqoZCPgcYhiLSK6q-18" value="" style="html=1;jettySize=18;whiteSpace=wrap;fontSize=13;strokeColor=#3a414a;strokeOpacity=100;strokeWidth=4.5;rounded=0;startArrow=none;endArrow=none;lucidId=nhfxkWtC1EJZ;entryX=1;entryY=0.5;entryDx=0;entryDy=0;" parent="HiohPXEZzKrVTZNAdpPA-4" target="HiohPXEZzKrVTZNAdpPA-26" edge="1">
          <mxGeometry width="100" height="100" relative="1" as="geometry">
            <Array as="points" />
            <mxPoint x="740" y="900" as="targetPoint" />
            <mxPoint x="1630" y="1030" as="sourcePoint" />
          </mxGeometry>
        </mxCell>
        <mxCell id="UO9TXqoZCPgcYhiLSK6q-20" value="" style="html=1;jettySize=18;whiteSpace=wrap;fontSize=13;strokeColor=#3a414a;strokeOpacity=100;strokeWidth=4.5;rounded=0;startArrow=none;endArrow=none;lucidId=nhfxkWtC1EJZ;entryX=1;entryY=0.5;entryDx=0;entryDy=0;" parent="HiohPXEZzKrVTZNAdpPA-4" target="HiohPXEZzKrVTZNAdpPA-46" edge="1">
          <mxGeometry width="100" height="100" relative="1" as="geometry">
            <Array as="points" />
            <mxPoint x="870" y="1300" as="targetPoint" />
            <mxPoint x="1640" y="1030" as="sourcePoint" />
          </mxGeometry>
        </mxCell>
        <mxCell id="HiohPXEZzKrVTZNAdpPA-5" value="" style="html=1;overflow=block;blockSpacing=1;shape=umlActor;labelPosition=center;verticalLabelPosition=bottom;verticalAlign=top;whiteSpace=nowrap;fontSize=30;spacing=0;strokeColor=#3a414a;strokeOpacity=100;fillOpacity=100;rounded=1;absoluteArcSize=1;arcSize=9;fillColor=#ffffff;strokeWidth=6;lucidId=1g_wy9wUcL76;" parent="1" vertex="1">
          <mxGeometry x="2040" y="-1310" width="125" height="281" as="geometry" />
        </mxCell>
        <mxCell id="HiohPXEZzKrVTZNAdpPA-6" value="End user" style="html=1;overflow=block;blockSpacing=1;shape=umlActor;labelPosition=center;verticalLabelPosition=bottom;verticalAlign=top;whiteSpace=nowrap;fontSize=30;spacing=0;strokeColor=#3a414a;strokeOpacity=100;fillOpacity=100;rounded=1;absoluteArcSize=1;arcSize=9;fillColor=#ffffff;strokeWidth=6;lucidId=Dh_w0z_cWkao;" parent="1" vertex="1">
          <mxGeometry x="-150" y="-2026" width="125" height="281" as="geometry" />
        </mxCell>
        <mxCell id="HiohPXEZzKrVTZNAdpPA-7" value="Donor" style="html=1;overflow=block;blockSpacing=1;shape=umlActor;labelPosition=center;verticalLabelPosition=bottom;verticalAlign=top;whiteSpace=nowrap;fontSize=30;spacing=0;strokeColor=#3a414a;strokeOpacity=100;fillOpacity=100;rounded=1;absoluteArcSize=1;arcSize=9;fillColor=#ffffff;strokeWidth=6;lucidId=Gh_wR6H7Idtn;" parent="1" vertex="1">
          <mxGeometry x="-152" y="-575" width="125" height="281" as="geometry" />
        </mxCell>
        <mxCell id="HiohPXEZzKrVTZNAdpPA-8" value="Recipient" style="html=1;overflow=block;blockSpacing=1;shape=umlActor;labelPosition=center;verticalLabelPosition=bottom;verticalAlign=top;whiteSpace=nowrap;fontSize=30;spacing=0;strokeColor=#3a414a;strokeOpacity=100;fillOpacity=100;rounded=1;absoluteArcSize=1;arcSize=9;fillColor=#ffffff;strokeWidth=6;lucidId=Hh_wz3prF-QZ;" parent="1" vertex="1">
          <mxGeometry y="-1216" width="125" height="281" as="geometry" />
        </mxCell>
        <mxCell id="HiohPXEZzKrVTZNAdpPA-9" value="" style="html=1;jettySize=18;whiteSpace=wrap;fontSize=13;strokeColor=#3a414a;strokeOpacity=100;strokeWidth=6;rounded=1;arcSize=12;edgeStyle=orthogonalEdgeStyle;startArrow=none;endArrow=block;endFill=0;endSize=12;exitX=0.5;exitY=-0.011;exitPerimeter=0;lucidId=2j_w3vIR0fWX;" parent="1" source="HiohPXEZzKrVTZNAdpPA-8" edge="1">
          <mxGeometry width="100" height="100" relative="1" as="geometry">
            <Array as="points">
              <mxPoint x="62" y="-1280" />
              <mxPoint x="-90" y="-1280" />
            </Array>
            <mxPoint x="-90" y="-1690" as="targetPoint" />
          </mxGeometry>
        </mxCell>
        <mxCell id="HiohPXEZzKrVTZNAdpPA-10" value="" style="html=1;jettySize=18;whiteSpace=wrap;fontSize=13;strokeColor=#3a414a;strokeOpacity=100;strokeWidth=6;rounded=1;arcSize=12;edgeStyle=orthogonalEdgeStyle;startArrow=none;endArrow=none;exitX=0.5;exitY=-0.011;exitPerimeter=0;lucidId=Fk_wloBVRCg2;" parent="1" source="HiohPXEZzKrVTZNAdpPA-7" edge="1">
          <mxGeometry width="100" height="100" relative="1" as="geometry">
            <Array as="points" />
            <mxPoint x="-90" y="-1529" as="targetPoint" />
          </mxGeometry>
        </mxCell>
        <mxCell id="HiohPXEZzKrVTZNAdpPA-12" value="Browse campaigns" style="html=1;overflow=block;blockSpacing=1;whiteSpace=wrap;ellipse;fontSize=26.7;spacing=3.8;strokeColor=#3a414a;strokeOpacity=100;fillOpacity=100;rounded=1;absoluteArcSize=1;arcSize=9;fillColor=#ffffff;strokeWidth=3;lucidId=ZSexeqa6wTr7;" parent="1" vertex="1">
          <mxGeometry x="870" y="-2190" width="270" height="106" as="geometry" />
        </mxCell>
        <mxCell id="HiohPXEZzKrVTZNAdpPA-16" value="Share campaign on social media" style="html=1;overflow=block;blockSpacing=1;whiteSpace=wrap;ellipse;fontSize=26.7;spacing=3.8;strokeColor=#3a414a;strokeOpacity=100;fillOpacity=100;rounded=1;absoluteArcSize=1;arcSize=9;fillColor=#ffffff;strokeWidth=3;lucidId=PUexNbSzLbAR;" parent="1" vertex="1">
          <mxGeometry x="870" y="-2066" width="283" height="112" as="geometry" />
        </mxCell>
        <mxCell id="HiohPXEZzKrVTZNAdpPA-32" value="" style="html=1;jettySize=18;whiteSpace=wrap;fontSize=13;strokeColor=#3a414a;strokeOpacity=100;strokeWidth=4.5;rounded=0;startArrow=none;endArrow=none;exitX=1.006;exitY=0.483;exitPerimeter=0;entryX=0;entryY=0.344;entryPerimeter=0;lucidId=6ffxlL_.5SvA;" parent="1" source="HiohPXEZzKrVTZNAdpPA-13" target="HiohPXEZzKrVTZNAdpPA-5" edge="1">
          <mxGeometry width="100" height="100" relative="1" as="geometry">
            <Array as="points">
              <mxPoint x="1560" y="-1869" />
            </Array>
          </mxGeometry>
        </mxCell>
        <mxCell id="HiohPXEZzKrVTZNAdpPA-40" value="" style="html=1;jettySize=18;whiteSpace=wrap;fontSize=13;strokeColor=#3a414a;strokeOpacity=100;strokeWidth=4.5;rounded=0;startArrow=none;endArrow=none;exitX=1;exitY=0.324;exitPerimeter=0;entryX=-0.006;entryY=0.5;entryPerimeter=0;lucidId=I_exgRmPpKbD;" parent="1" source="HiohPXEZzKrVTZNAdpPA-6" target="HiohPXEZzKrVTZNAdpPA-12" edge="1">
          <mxGeometry width="100" height="100" relative="1" as="geometry">
            <Array as="points" />
          </mxGeometry>
        </mxCell>
        <mxCell id="HiohPXEZzKrVTZNAdpPA-41" value="" style="html=1;jettySize=18;whiteSpace=wrap;fontSize=13;strokeColor=#3a414a;strokeOpacity=100;strokeWidth=4.5;rounded=0;startArrow=none;endArrow=none;exitX=1;exitY=0.324;exitPerimeter=0;entryX=-0.006;entryY=0.5;entryPerimeter=0;lucidId=p~exlircp8Ax;" parent="1" source="HiohPXEZzKrVTZNAdpPA-6" target="HiohPXEZzKrVTZNAdpPA-13" edge="1">
          <mxGeometry width="100" height="100" relative="1" as="geometry">
            <Array as="points" />
          </mxGeometry>
        </mxCell>
        <mxCell id="HiohPXEZzKrVTZNAdpPA-47" value="" style="html=1;jettySize=18;whiteSpace=wrap;fontSize=13;strokeColor=#3a414a;strokeOpacity=100;strokeWidth=4.5;rounded=0;startArrow=none;endArrow=none;exitX=1;exitY=0.323;exitPerimeter=0;entryX=-0.005;entryY=0.5;entryPerimeter=0;lucidId=7gfxOH~gNy6~;" parent="1" source="HiohPXEZzKrVTZNAdpPA-8" target="HiohPXEZzKrVTZNAdpPA-21" edge="1">
          <mxGeometry width="100" height="100" relative="1" as="geometry">
            <Array as="points" />
          </mxGeometry>
        </mxCell>
        <mxCell id="HiohPXEZzKrVTZNAdpPA-48" value="" style="html=1;jettySize=18;whiteSpace=wrap;fontSize=13;strokeColor=#3a414a;strokeOpacity=100;strokeWidth=4.5;rounded=0;startArrow=none;endArrow=none;exitX=0;exitY=0.5;lucidId=nhfxkWtC1EJZ;exitDx=0;exitDy=0;" parent="1" source="UO9TXqoZCPgcYhiLSK6q-3" edge="1">
          <mxGeometry width="100" height="100" relative="1" as="geometry">
            <Array as="points" />
            <mxPoint x="125" y="-1125" as="targetPoint" />
            <mxPoint x="558.3800000000001" y="-977.0000000000005" as="sourcePoint" />
          </mxGeometry>
        </mxCell>
        <mxCell id="HiohPXEZzKrVTZNAdpPA-52" value="" style="html=1;jettySize=18;whiteSpace=wrap;fontSize=13;strokeColor=#3a414a;strokeOpacity=100;strokeWidth=4.5;rounded=0;startArrow=none;endArrow=none;exitX=1;exitY=0.5;entryX=0;entryY=0.344;entryPerimeter=0;lucidId=MyfxwUwWbKAq;exitDx=0;exitDy=0;" parent="1" source="RDOZD4XtGrTmduCKfG26-4" target="HiohPXEZzKrVTZNAdpPA-5" edge="1">
          <mxGeometry width="100" height="100" relative="1" as="geometry">
            <Array as="points" />
            <mxPoint x="1645" y="-1290" as="sourcePoint" />
          </mxGeometry>
        </mxCell>
        <mxCell id="HiohPXEZzKrVTZNAdpPA-54" value="" style="html=1;jettySize=18;whiteSpace=wrap;fontSize=13;strokeColor=#3a414a;strokeOpacity=100;strokeWidth=4.5;rounded=0;startArrow=none;endArrow=none;lucidId=qAfxJmNKc4OD;exitX=0.948;exitY=0.327;exitDx=0;exitDy=0;exitPerimeter=0;" parent="1" source="RDOZD4XtGrTmduCKfG26-1" edge="1">
          <mxGeometry width="100" height="100" relative="1" as="geometry">
            <Array as="points" />
            <mxPoint x="1630" y="-982" as="sourcePoint" />
            <mxPoint x="2020" y="-1220" as="targetPoint" />
          </mxGeometry>
        </mxCell>
        <mxCell id="HiohPXEZzKrVTZNAdpPA-59" value="" style="html=1;jettySize=18;whiteSpace=wrap;fontSize=13;strokeColor=#3a414a;strokeOpacity=100;strokeWidth=4.5;rounded=0;startArrow=none;endArrow=none;exitX=1.006;exitY=0.5;exitPerimeter=0;entryX=0;entryY=0.344;entryPerimeter=0;lucidId=DGfx12SbrAoX;" parent="1" source="HiohPXEZzKrVTZNAdpPA-12" target="HiohPXEZzKrVTZNAdpPA-5" edge="1">
          <mxGeometry width="100" height="100" relative="1" as="geometry">
            <Array as="points">
              <mxPoint x="1551" y="-2138" />
            </Array>
          </mxGeometry>
        </mxCell>
        <mxCell id="HiohPXEZzKrVTZNAdpPA-60" value="" style="html=1;jettySize=18;whiteSpace=wrap;fontSize=13;strokeColor=#3a414a;strokeOpacity=100;strokeWidth=4.5;rounded=0;startArrow=none;endArrow=none;exitX=1.006;exitY=0.5;exitPerimeter=0;entryX=0;entryY=0.344;entryPerimeter=0;lucidId=gHfxltmi~F5C;" parent="1" source="HiohPXEZzKrVTZNAdpPA-16" target="HiohPXEZzKrVTZNAdpPA-5" edge="1">
          <mxGeometry width="100" height="100" relative="1" as="geometry">
            <Array as="points">
              <mxPoint x="1545" y="-2014" />
            </Array>
          </mxGeometry>
        </mxCell>
        <mxCell id="HiohPXEZzKrVTZNAdpPA-63" value="" style="html=1;jettySize=18;whiteSpace=wrap;fontSize=13;strokeColor=#3a414a;strokeOpacity=100;strokeWidth=4.5;rounded=0;startArrow=none;endArrow=none;exitX=-0.006;exitY=0.5;exitPerimeter=0;entryX=1;entryY=0.339;entryPerimeter=0;lucidId=FCfxjPOnH9NR;" parent="1" source="HiohPXEZzKrVTZNAdpPA-17" target="HiohPXEZzKrVTZNAdpPA-7" edge="1">
          <mxGeometry width="100" height="100" relative="1" as="geometry">
            <Array as="points" />
          </mxGeometry>
        </mxCell>
        <mxCell id="HiohPXEZzKrVTZNAdpPA-68" value="" style="html=1;jettySize=18;whiteSpace=wrap;fontSize=13;strokeColor=#3a414a;strokeOpacity=100;strokeWidth=4.5;rounded=0;startArrow=none;endArrow=none;entryX=1;entryY=0.323;entryPerimeter=0;lucidId=.Dfxa5KVzsBQ;exitX=0;exitY=0.5;exitDx=0;exitDy=0;" parent="1" source="HiohPXEZzKrVTZNAdpPA-23" target="HiohPXEZzKrVTZNAdpPA-8" edge="1">
          <mxGeometry width="100" height="100" relative="1" as="geometry">
            <Array as="points" />
            <mxPoint x="607" y="-600" as="sourcePoint" />
          </mxGeometry>
        </mxCell>
        <mxCell id="HiohPXEZzKrVTZNAdpPA-70" value="" style="html=1;jettySize=18;whiteSpace=wrap;fontSize=13;strokeColor=#3a414a;strokeOpacity=100;strokeWidth=4.5;rounded=0;startArrow=none;endArrow=none;exitX=-0.006;exitY=0.5;exitPerimeter=0;entryX=1;entryY=0.323;entryPerimeter=0;lucidId=2FfxpuAb15r2;" parent="1" source="HiohPXEZzKrVTZNAdpPA-51" target="HiohPXEZzKrVTZNAdpPA-8" edge="1">
          <mxGeometry width="100" height="100" relative="1" as="geometry">
            <Array as="points" />
          </mxGeometry>
        </mxCell>
        <mxCell id="HiohPXEZzKrVTZNAdpPA-72" value="" style="html=1;jettySize=18;whiteSpace=wrap;fontSize=13;strokeColor=#3a414a;strokeOpacity=100;strokeWidth=4.5;rounded=0;startArrow=none;endArrow=none;exitX=-0.006;exitY=0.5;exitPerimeter=0;entryX=1;entryY=0.324;entryPerimeter=0;lucidId=8GfxW4CBvneC;" parent="1" source="HiohPXEZzKrVTZNAdpPA-16" target="HiohPXEZzKrVTZNAdpPA-6" edge="1">
          <mxGeometry width="100" height="100" relative="1" as="geometry">
            <Array as="points">
              <mxPoint x="540" y="-1980" />
            </Array>
          </mxGeometry>
        </mxCell>
        <mxCell id="HiohPXEZzKrVTZNAdpPA-80" value="&lt;font style=&quot;font-size: 36px;&quot;&gt;Crowdfunding system&lt;/font&gt;" style="text;html=1;align=center;verticalAlign=middle;resizable=0;points=[];autosize=1;strokeColor=none;fillColor=none;" parent="1" vertex="1">
          <mxGeometry x="846" y="-2312" width="370" height="60" as="geometry" />
        </mxCell>
        <mxCell id="cu4BUjr6Bzw_cpkHNXrN-2" value="&lt;font style=&quot;font-size: 31px;&quot;&gt;Platform administrator&lt;/font&gt;" style="whiteSpace=wrap;html=1;strokeColor=none;" parent="1" vertex="1">
          <mxGeometry x="1927.5" y="-1010" width="350" height="60" as="geometry" />
        </mxCell>
        <mxCell id="UO9TXqoZCPgcYhiLSK6q-1" value="" style="html=1;jettySize=18;whiteSpace=wrap;fontSize=13;strokeColor=#3a414a;strokeOpacity=100;strokeWidth=4.5;rounded=0;startArrow=none;endArrow=none;lucidId=qAfxJmNKc4OD;exitX=0.993;exitY=0.347;exitDx=0;exitDy=0;exitPerimeter=0;" parent="1" source="HiohPXEZzKrVTZNAdpPA-33" edge="1">
          <mxGeometry width="100" height="100" relative="1" as="geometry">
            <Array as="points" />
            <mxPoint x="1657" y="-1074" as="sourcePoint" />
            <mxPoint x="2030" y="-1220" as="targetPoint" />
          </mxGeometry>
        </mxCell>
        <mxCell id="UO9TXqoZCPgcYhiLSK6q-13" value="" style="html=1;jettySize=18;whiteSpace=wrap;fontSize=13;strokeColor=#3a414a;strokeOpacity=100;strokeWidth=4.5;rounded=0;startArrow=none;endArrow=none;exitX=0;exitY=0.5;lucidId=nhfxkWtC1EJZ;exitDx=0;exitDy=0;" parent="1" source="HiohPXEZzKrVTZNAdpPA-26" edge="1">
          <mxGeometry width="100" height="100" relative="1" as="geometry">
            <Array as="points" />
            <mxPoint x="135" y="-1130" as="targetPoint" />
            <mxPoint x="530" y="-1014" as="sourcePoint" />
          </mxGeometry>
        </mxCell>
        <mxCell id="UO9TXqoZCPgcYhiLSK6q-15" value="" style="html=1;jettySize=18;whiteSpace=wrap;fontSize=13;strokeColor=#3a414a;strokeOpacity=100;strokeWidth=4.5;rounded=0;startArrow=none;endArrow=none;exitX=0;exitY=0.5;lucidId=nhfxkWtC1EJZ;exitDx=0;exitDy=0;entryX=1;entryY=0.3333333333333333;entryDx=0;entryDy=0;entryPerimeter=0;" parent="1" source="HiohPXEZzKrVTZNAdpPA-46" target="HiohPXEZzKrVTZNAdpPA-8" edge="1">
          <mxGeometry width="100" height="100" relative="1" as="geometry">
            <Array as="points" />
            <mxPoint x="155" y="-1095" as="targetPoint" />
            <mxPoint x="550" y="-994" as="sourcePoint" />
          </mxGeometry>
        </mxCell>
        <mxCell id="UO9TXqoZCPgcYhiLSK6q-16" value="" style="html=1;jettySize=18;whiteSpace=wrap;fontSize=13;strokeColor=#3a414a;strokeOpacity=100;strokeWidth=4.5;rounded=0;startArrow=none;endArrow=none;exitX=0;exitY=0.5;lucidId=nhfxkWtC1EJZ;exitDx=0;exitDy=0;" parent="1" source="RDOZD4XtGrTmduCKfG26-3" edge="1">
          <mxGeometry width="100" height="100" relative="1" as="geometry">
            <Array as="points" />
            <mxPoint x="120" y="-1130" as="targetPoint" />
            <mxPoint x="560" y="-984" as="sourcePoint" />
          </mxGeometry>
        </mxCell>
        <mxCell id="UO9TXqoZCPgcYhiLSK6q-22" value="" style="html=1;jettySize=18;whiteSpace=wrap;fontSize=13;strokeColor=#3a414a;strokeOpacity=100;strokeWidth=4.5;rounded=0;startArrow=none;endArrow=none;lucidId=nhfxkWtC1EJZ;entryX=1;entryY=0.5;entryDx=0;entryDy=0;" parent="1" target="RDOZD4XtGrTmduCKfG26-3" edge="1">
          <mxGeometry width="100" height="100" relative="1" as="geometry">
            <Array as="points" />
            <mxPoint x="1155" y="-872" as="targetPoint" />
            <mxPoint x="2030" y="-1220" as="sourcePoint" />
          </mxGeometry>
        </mxCell>
      </root>
    </mxGraphModel>
  </diagram>
</mxfile>
